<?xml version="1.0" encoding="UTF-8" standalone="no"?>
<svg
   version="1.1"
   width="721.33148pt"
   height="231.3811pt"
   id="svg66"
   viewBox="0 0 721.33148 231.3811"
   sodipodi:docname="Asa Branca Pharma.svg"
   inkscape:version="1.2 (dc2aedaf03, 2022-05-15)"
   xmlns:inkscape="http://www.inkscape.org/namespaces/inkscape"
   xmlns:sodipodi="http://sodipodi.sourceforge.net/DTD/sodipodi-0.dtd"
   xmlns="http://www.w3.org/2000/svg"
   xmlns:svg="http://www.w3.org/2000/svg">
  <defs
     id="defs70" />
  <sodipodi:namedview
     id="namedview68"
     pagecolor="#ffffff"
     bordercolor="#000000"
     borderopacity="0.25"
     inkscape:showpageshadow="2"
     inkscape:pageopacity="0.0"
     inkscape:pagecheckerboard="0"
     inkscape:deskcolor="#d1d1d1"
     showgrid="false"
     inkscape:zoom="1.2088875"
     inkscape:cx="514.10906"
     inkscape:cy="1017.878"
     inkscape:window-width="2976"
     inkscape:window-height="1288"
     inkscape:window-x="26"
     inkscape:window-y="23"
     inkscape:window-maximized="0"
     inkscape:current-layer="g189-3"
     inkscape:document-units="pt" />
  <g
     id="g2197"
     transform="translate(-63.011133,-172.05023)"
     inkscape:export-filename="asabrancapharma-logo.svg"
     inkscape:export-xdpi="96"
     inkscape:export-ydpi="96">
    <path
       d="M 0,0 V 595.2756 H 841.8898 V 0 Z"
       style="display:none;fill:#091c5e;fill-opacity:1;fill-rule:evenodd"
       id="path2167" />
    <ellipse
       style="display:none;fill:#091c5e;fill-opacity:1;stroke-width:0.863116"
       id="ellipse2169"
       cx="185.60498"
       cy="287.07877"
       rx="155.43329"
       ry="156.03915" />
    <g
       id="g2171" />
    <g
       id="g2173" />
    <g
       id="g2179"
       transform="translate(-4.6530695,-10.286934)"
       style="stroke:none">
      <path
         d="m 242.7512,252.5822 v 0.004 z m -0.003,0.001 46.7791,0.002 c 12.8285,0 23.3246,10.4961 23.3246,23.3247 v 40.5494 c 0,12.8286 -10.4961,23.3247 -23.3246,23.3247 l -46.776,0.002 3e-4,49.2835 c 0,12.8286 -10.4961,23.3247 -23.3247,23.3247 H 178.877 c -12.8285,0 -23.3246,-10.4961 -23.3246,-23.3247 V 205.6618 c 0,-12.8285 10.4961,-23.3246 23.3246,-23.3246 h 40.5495 c 12.8286,0 23.3247,10.4961 23.3247,23.3246 z"
         style="fill:#5bc500;fill-rule:evenodd;stroke:none"
         id="path2175" />
      <path
         d="m 242.6995,351.7359 0.0992,9.9507 c 8.0668,-9.8758 14.2592,-21.7668 11.2174,-38.3613 -4.154,-22.6608 -19.9994,-34.6321 -38.3577,-40.924 l -58.4426,-20.0298 c -17.0942,-5.8587 -30.2293,-15.6608 -41.2271,-27.811 1.6418,6.517 3.7938,12.6011 7.2488,17.58 -25.3316,-13.9391 -34.3807,-36.2013 -37.1495,-61.6741 -14.554,25.2035 -10.7072,48.6644 4.8323,70.6083 9.6153,13.5781 22.3086,25.0405 41.076,32.278 -26.5998,-5.6132 -48.2031,-19.8444 -64.3321,-43.5176 1.2377,17.7555 7.5752,34.3528 22.3502,48.4171 12.4573,11.8581 27.7861,19.5081 47.1165,20.7502 -17.9149,1.459 -33.5816,-2.8035 -47.7206,-10.9515 5.9329,15.3239 17.1138,27.8278 38.3577,34.8718 17.8816,5.9294 37.0394,6.5317 57.0834,2.0175 24.985,-5.6273 46.4877,-7.7373 56.1775,3.1701 0.9081,1.0223 1.4355,2.2483 1.6706,3.6256 z"
         style="fill:#ffffff;fill-rule:evenodd;stroke:none;stroke-width:3;stroke-linecap:square;stroke-linejoin:miter;stroke-miterlimit:1.8;stroke-dasharray:none;stroke-opacity:1;paint-order:normal"
         id="path2177" />
    </g>
    <g
       id="g2181" />
    <g
       id="g2183" />
    <path
       d="m 344.9438,351.9264 h 412.4809 v 51.5049 H 344.9438 Z"
       style="fill:#b3b3b3;fill-opacity:0;fill-rule:evenodd"
       id="path2185" />
    <path
       d="m 430.78468,257.90492 -5.9247,-10.9712 h -33.4627 l 8.119,-15.2504 h 17.225 l -12.1782,-22.9301 -26.1119,49.1517 h -21.1748 l 36.4249,-66.0476 c 1.9749,-3.511 4.8274,-5.2662 8.5578,-5.2662 h 4.3886 c 3.7301,0 6.5826,1.7552 8.5575,5.2662 l 36.4249,66.0476 z m 26.2216,0 v -18.432 h 53.3208 c 1.3896,0 2.5234,-0.4204 3.401,-1.2617 0.8776,-0.8411 1.3167,-2.0296 1.3167,-3.5657 0,-1.5358 -0.4391,-2.7428 -1.3167,-3.6204 -0.8776,-0.8776 -2.0114,-1.3167 -3.401,-1.3167 h -31.3781 c -3.2916,0 -6.345,-0.5301 -9.1613,-1.5908 -2.8159,-1.0605 -5.2296,-2.5234 -7.2408,-4.3886 -2.0114,-1.8649 -3.5841,-4.1142 -4.7177,-6.7473 -1.1338,-2.6331 -1.7008,-5.5588 -1.7008,-8.777 0,-3.2184 0.567,-6.1622 1.7008,-8.8321 1.1336,-2.6697 2.7063,-4.9553 4.7177,-6.8571 2.0112,-1.9017 4.4249,-3.3644 7.2408,-4.3886 2.8163,-1.0238 5.8697,-1.5358 9.1613,-1.5358 h 54.1985 v 18.3221 h -53.3209 c -1.3895,0 -2.5049,0.4022 -3.3463,1.2069 -0.841,0.8045 -1.2617,1.9749 -1.2617,3.5108 0,1.4629 0.4207,2.6331 1.2617,3.5109 0.8414,0.8777 1.9568,1.3165 3.3463,1.3165 h 31.3781 c 3.3645,0 6.4367,0.5303 9.216,1.5908 2.7794,1.0607 5.1931,2.5418 7.2411,4.4435 2.0481,1.9015 3.6389,4.1874 4.7725,6.8571 1.1338,2.6696 1.7005,5.5771 1.7005,8.7222 0,3.2913 -0.5667,6.2719 -1.7005,8.9416 -1.1336,2.6696 -2.7244,4.9736 -4.7725,6.912 -2.048,1.9383 -4.4617,3.4194 -7.2411,4.4433 -2.7793,1.0241 -5.8515,1.5361 -9.216,1.5361 z m 150.8562,0 -5.9247,-10.9712 h -33.4627 l 8.119,-15.2504 h 17.225 l -12.1782,-22.9301 -26.1119,49.1517 h -21.1748 l 36.4249,-66.0476 c 1.9749,-3.511 4.8274,-5.2662 8.5578,-5.2662 h 4.3886 c 3.7301,0 6.5826,1.7552 8.5575,5.2662 l 36.4249,66.0476 z"
       style="fill:#ffffff;fill-opacity:1;fill-rule:evenodd"
       id="path2189" />
    <path
       d="m 357.28748,328.40532 v -57.4832 h 41.5646 c 3.0657,0 5.7042,0.3833 7.9149,1.1498 2.2111,0.7664 4.0091,1.8277 5.3947,3.1836 1.3855,1.356 2.4026,2.9627 3.0512,4.8197 0.6483,1.8573 0.9725,3.8472 0.9725,5.9695 0,3.0067 -0.5601,5.5567 -1.6801,7.6496 -1.1202,2.0931 -2.7121,3.5523 -4.7755,4.3778 2.2402,0.7072 4.1122,2.2107 5.6154,4.5102 1.5035,2.2992 2.2553,5.2764 2.2553,8.932 0,5.1882 -1.6362,9.3004 -4.9082,12.3366 -3.272,3.0362 -8.0033,4.5544 -14.1939,4.5544 z m 20.6056,-23.0816 v -11.8503 h 19.0133 c 1.3561,0 2.4027,-0.3537 3.1397,-1.0613 0.737,-0.7075 1.1055,-1.7393 1.1055,-3.0954 0,-1.3558 -0.3685,-2.3729 -1.1055,-3.0509 -0.737,-0.6781 -1.7836,-1.0171 -3.1397,-1.0171 h -24.1426 v 28.7416 h 24.9386 c 3.066,0 4.5987,-1.3856 4.5987,-4.1564 0,-1.4151 -0.3833,-2.5203 -1.1495,-3.3163 -0.7665,-0.7959 -1.8867,-1.1939 -3.3607,-1.1939 z m 92.061,23.0816 -11.4964,-14.5919 h -13.6191 v -13.4421 h 19.8094 c 2.1225,0 3.8619,-0.6633 5.2177,-1.99 1.3561,-1.3263 2.0341,-3.1098 2.0341,-5.3501 0,-2.2405 -0.678,-4.024 -2.0341,-5.3504 -1.3558,-1.3266 -3.0952,-1.9899 -5.2177,-1.9899 h -24.2312 v 42.7144 h -15.3878 v -57.4832 h 39.619 c 3.3017,0 6.3379,0.5159 9.1088,1.5477 2.7712,1.0319 5.1735,2.4908 7.2077,4.3776 2.0341,1.8867 3.611,4.1564 4.7313,6.8097 1.1202,2.6529 1.6803,5.5712 1.6803,8.755 0,4.4218 -1.0612,8.2834 -3.1838,11.585 -2.1223,3.3018 -4.9819,5.8073 -8.5782,7.5172 l 14.5034,16.891 z m 82.3337,0 -4.7755,-8.8435 h -26.9728 l 6.5441,-12.2924 h 13.8844 l -9.8161,-18.4831 -21.0479,39.619 h -17.0679 l 29.3604,-53.2383 c 1.5919,-2.8298 3.8914,-4.2449 6.8981,-4.2449 h 3.5374 c 3.0069,0 5.3061,1.4151 6.8981,4.2449 l 29.3604,53.2383 z m 76.0544,0 c -2.0633,0 -3.6847,-0.3832 -4.8637,-1.1497 -1.1792,-0.7665 -2.5058,-2.0044 -3.9798,-3.7142 l -29.6257,-32.0137 v 36.8776 h -15.0341 v -50.9388 c 0,-4.3628 2.3876,-6.5444 7.1631,-6.5444 h 3.7145 c 1.179,0 2.2108,0.0885 3.0952,0.2654 0.8844,0.1768 1.6803,0.4422 2.3876,0.7959 0.7075,0.3538 1.3708,0.796 1.9899,1.3266 0.6191,0.5307 1.2529,1.1498 1.9015,1.857 l 27.1497,29.2723 v -33.5172 h 14.9456 v 51.558 c 0,3.9501 -1.9162,5.9252 -5.7483,5.9252 z m 47.0481,0 c -4.4218,0 -8.4898,-0.6927 -12.2043,-2.0783 -3.7143,-1.3853 -6.9126,-3.331 -9.595,-5.8366 -2.6827,-2.5058 -4.7903,-5.5272 -6.3233,-9.0646 -1.5329,-3.5376 -2.2994,-7.4582 -2.2994,-11.7621 0,-4.3038 0.7665,-8.2097 2.2994,-11.7175 1.533,-3.5082 3.6406,-6.5296 6.3233,-9.0647 2.6824,-2.5353 5.8807,-4.4954 9.595,-5.881 3.7145,-1.3856 7.7825,-2.0784 12.2043,-2.0784 h 28.1225 v 14.7688 h -29.1838 c -2.0047,0 -3.8617,0.339 -5.5715,1.0171 -1.7096,0.678 -3.1836,1.6361 -4.4218,2.874 -1.2382,1.2382 -2.2107,2.7122 -2.9183,4.4218 -0.7075,1.7099 -1.0613,3.5966 -1.0613,5.6599 0,2.0637 0.3538,3.9501 1.0613,5.66 0.7076,1.7098 1.6801,3.1688 2.9183,4.3775 1.2382,1.2087 2.7122,2.1521 4.4218,2.8298 1.7098,0.6781 3.5668,1.0171 5.5715,1.0171 h 29.1838 v 14.8572 z m 92.1497,0 -4.7755,-8.8435 h -26.9728 l 6.5441,-12.2924 h 13.8844 l -9.8161,-18.4831 -21.0478,39.619 h -17.068 l 29.3604,-53.2383 c 1.5919,-2.8298 3.8914,-4.2449 6.8981,-4.2449 h 3.5374 c 3.007,0 5.3061,1.4151 6.8981,4.2449 l 29.3604,53.2383 z"
       style="fill:#ffffff;fill-opacity:1;fill-rule:evenodd"
       id="path2191" />
    <path
       d="m 389.27218,339.47692 c 0.6409,0 1.2822,0 1.9231,0 0.8375,0 1.6746,0.0435 2.508,0.13 1.4944,0.0895 2.979,0.3012 4.4404,0.6284 1.5446,0.3458 3.0147,0.9183 4.3808,1.7175 2.4635,1.4422 4.3136,3.4688 5.4125,6.1067 1.0198,2.4475 1.5483,5.015 1.5949,7.6659 0.0435,2.4391 -0.3825,4.8555 -1.2688,7.1285 -0.9436,2.419 -2.4986,4.4067 -4.6049,5.9296 -1.7476,1.2631 -3.7007,2.0991 -5.8163,2.5029 -1.9433,0.3711 -3.9114,0.5978 -5.8878,0.6838 l -0.0729,0.002 c -0.4991,0 -0.9981,0 -1.4971,0 -0.5021,0 -1.0042,0.003 -1.5063,0 l -9.723,-0.0533 v 15.6475 h -12.7838 v -48.1516 h 22.8386 z m 60.3064,18.0892 h 13.9139 v -18.1518 h 12.7833 v 48.1516 h -12.7833 v -18.713 h -13.9139 v 18.713 h -12.7838 v -48.1516 h 12.7838 z m 84.5541,19.3331 h -17.1414 l -3.9921,10.6667 h -13.6208 l 20.3202,-48.1516 h 12.2082 l 20.5216,48.1516 h -14.1789 z m 69.0117,-37.3565 c 1.8138,0.0911 3.6064,0.382 5.3561,0.8691 1.9484,0.5425 3.6432,1.5581 5.0512,2.9661 1.2977,1.2501 2.2802,2.7301 2.9283,4.4119 0.6155,1.5949 0.9986,3.2566 1.1368,4.9601 l 0.006,0.0678 v 0.0684 c 0,0.2515 0.009,0.5031 0.0269,0.7537 0.0228,0.3235 0.031,0.6475 0.0352,0.9721 0.0393,3.2099 -0.6585,6.306 -2.4247,9.0169 -1.4276,2.1912 -3.4304,3.6577 -5.7624,4.5708 l 11.5932,19.3663 h -14.5573 l -9.8555,-17.5902 h -8.435 v 17.5902 h -12.7838 v -48.1516 h 24.9635 l 0.0766,0.007 c 0.3945,0.0357 0.791,0.0553 1.1875,0.0553 0.4866,0 0.9732,0.0228 1.4577,0.0658 z m 70.1826,30.5862 10.2013,-30.7146 h 16.6812 v 48.1516 h -12.6332 l 0.544,-25.3259 -8.3362,25.3259 h -12.4069 l -8.6629,-25.7618 0.6833,25.7618 h -13.0157 v -48.1516 h 16.7438 z m 84.7394,6.7703 h -17.1414 l -3.9921,10.6667 h -13.6208 l 20.3202,-48.1516 h 12.2082 l 20.5216,48.1516 h -14.1789 z m -371.3607,-26.136 h -7.5509 v 9.8596 h 9.7949 c 1.7699,0 3.5568,-0.2955 5.1294,-1.1409 1.3547,-0.7278 1.6094,-2.3175 1.6099,-3.7752 0.0414,-1.4194 -0.1165,-3.2327 -1.6151,-3.8559 -1.7973,-0.747 -3.7493,-1.025 -5.6858,-1.025 h -1.6824 z m 138.7543,3.9077 -4.1386,10.8794 h 8.4351 z m 70.9576,-3.9077 h -8.1747 v 7.9257 h 10.252 l 0.1258,0.0626 c 1.6518,-0.002 3.3015,-0.2308 4.8565,-0.8018 1.215,-0.4462 1.3081,-2.0913 1.2993,-3.1789 -0.009,-1.1196 -0.1273,-2.8098 -1.4095,-3.2115 -1.6974,-0.5316 -3.4926,-0.7335 -5.2671,-0.7335 h -1.6823 z m 152.9761,3.9077 -4.1386,10.8794 h 8.4351 z"
       style="fill:#58b802;fill-rule:evenodd"
       id="path2193" />
  </g>
</svg>
