<?xml version="1.0" encoding="UTF-8" standalone="no"?>
<svg
   viewBox="0 0 39 39"
   version="1.1"
   id="svg3141"
   sodipodi:docname="phone-alt-solid.svg"
   width="39"
   height="39"
   inkscape:version="1.2.1 (9c6d41e410, 2022-07-14)"
   xmlns:inkscape="http://www.inkscape.org/namespaces/inkscape"
   xmlns:sodipodi="http://sodipodi.sourceforge.net/DTD/sodipodi-0.dtd"
   xmlns="http://www.w3.org/2000/svg"
   xmlns:svg="http://www.w3.org/2000/svg">
  <defs
     id="defs3145" />
  <sodipodi:namedview
     id="namedview3143"
     pagecolor="#ffffff"
     bordercolor="#000000"
     borderopacity="0.25"
     inkscape:showpageshadow="2"
     inkscape:pageopacity="0.0"
     inkscape:pagecheckerboard="0"
     inkscape:deskcolor="#d1d1d1"
     showgrid="false"
     inkscape:zoom="16.046875"
     inkscape:cx="20.284323"
     inkscape:cy="20.782863"
     inkscape:window-width="1551"
     inkscape:window-height="1288"
     inkscape:window-x="26"
     inkscape:window-y="23"
     inkscape:window-maximized="0"
     inkscape:current-layer="svg3141" />
  <!-- Font Awesome Pro 5.15.4 by @fontawesome - https://fontawesome.com License - https://fontawesome.com/license (Commercial License) -->
  <path
     d="m 36.709516,27.377709 -7.895649,-3.482941 a 1.6919246,1.7414705 0 0 0 -1.973912,0.500672 l -3.496644,4.397214 A 26.130367,26.895562 0 0 1 10.851972,15.935522 l 4.27211,-3.59904 A 1.6876949,1.7371169 0 0 0 15.61051,10.304767 L 12.226661,2.1779041 A 1.7032041,1.7530803 0 0 0 10.287997,1.1693024 L 2.9563238,2.910773 A 1.6919246,1.7414705 0 0 0 1.6450822,4.6079812 c 0,18.6119668 14.6562968,33.6684308 32.7105428,33.6684308 a 1.6919246,1.7414705 0 0 0 1.649627,-1.349639 L 37.697177,29.3804 a 1.7123687,1.7625133 0 0 0 -0.987661,-2.002691 z"
     id="path3139"
     style="stroke-width:0.0715216;fill:#5bc500;fill-opacity:1" />
</svg>
