<svg width="961.775" height="308.508" viewBox="0 0 721.331 231.381" xmlns="http://www.w3.org/2000/svg"><g style="stroke:none"><path d="M242.751 252.582v.004zm-.003.001 46.78.002c12.828 0 23.324 10.496 23.324 23.325v40.55c0 12.828-10.496 23.324-23.325 23.324l-46.776.002v49.283c0 12.83-10.495 23.325-23.324 23.325h-40.55c-12.829 0-23.325-10.496-23.325-23.324V205.662c0-12.829 10.497-23.325 23.325-23.325h40.55c12.828 0 23.324 10.496 23.324 23.325z" style="fill:#5bc500;fill-rule:evenodd;stroke:none" transform="translate(-67.664 -182.337)"/><path d="m242.7 351.736.099 9.95c8.066-9.875 14.259-21.766 11.217-38.36-4.154-22.662-20-34.633-38.358-40.925l-58.442-20.03c-17.094-5.858-30.23-15.66-41.227-27.81 1.641 6.516 3.793 12.6 7.248 17.58-25.331-13.94-34.38-36.202-37.149-61.675-14.554 25.204-10.707 48.665 4.832 70.609 9.616 13.578 22.309 25.04 41.076 32.278-26.6-5.614-48.203-19.845-64.332-43.518 1.238 17.756 7.575 34.353 22.35 48.417 12.458 11.858 27.787 19.508 47.117 20.75-17.915 1.46-33.582-2.803-47.72-10.951 5.932 15.324 17.113 27.828 38.357 34.872 17.882 5.93 37.04 6.531 57.083 2.017 24.985-5.627 46.488-7.737 56.178 3.17.908 1.023 1.435 2.249 1.67 3.626z" style="fill:#fff;fill-rule:evenodd;stroke:none;stroke-width:3;stroke-linecap:square;stroke-linejoin:miter;stroke-miterlimit:1.8;stroke-dasharray:none;stroke-opacity:1;paint-order:normal" transform="translate(-67.664 -182.337)"/></g><path d="M344.944 351.926h412.48v51.505h-412.48Z" style="fill:#b3b3b3;fill-opacity:0;fill-rule:evenodd" fill="none" transform="translate(-63.011 -172.05)"/><path d="m430.785 257.905-5.925-10.971h-33.463l8.12-15.25h17.224l-12.178-22.93-26.112 49.15h-21.175l36.425-66.047c1.975-3.51 4.828-5.266 8.558-5.266h4.389c3.73 0 6.582 1.755 8.557 5.266l36.425 66.048zm26.221 0v-18.432h53.321c1.39 0 2.523-.42 3.401-1.262.878-.84 1.317-2.03 1.317-3.565 0-1.536-.44-2.743-1.317-3.62-.878-.878-2.011-1.318-3.4-1.318h-31.379c-3.292 0-6.345-.53-9.161-1.59s-5.23-2.524-7.241-4.389c-2.012-1.865-3.584-4.114-4.718-6.747s-1.7-5.56-1.7-8.777c0-3.219.566-6.162 1.7-8.832 1.134-2.67 2.706-4.956 4.718-6.857 2.011-1.902 4.425-3.365 7.24-4.39 2.817-1.023 5.87-1.535 9.162-1.535h54.198v18.322h-53.32c-1.39 0-2.505.402-3.347 1.207-.84.805-1.261 1.975-1.261 3.51 0 1.464.42 2.634 1.261 3.512.842.878 1.957 1.316 3.347 1.316h31.378c3.364 0 6.436.53 9.216 1.591 2.78 1.06 5.193 2.542 7.24 4.444 2.049 1.901 3.64 4.187 4.773 6.857 1.134 2.67 1.7 5.577 1.7 8.722 0 3.291-.566 6.272-1.7 8.942-1.133 2.67-2.724 4.973-4.772 6.912-2.048 1.938-4.462 3.419-7.241 4.443-2.78 1.024-5.852 1.536-9.216 1.536zm150.856 0-5.924-10.971h-33.463l8.12-15.25h17.224l-12.178-22.93-26.112 49.15h-21.175l36.425-66.047c1.975-3.51 4.827-5.266 8.558-5.266h4.388c3.73 0 6.583 1.755 8.558 5.266l36.425 66.048zM357.287 328.405v-57.483h41.565c3.066 0 5.704.383 7.915 1.15 2.211.766 4.01 1.828 5.395 3.184a12.346 12.346 0 0 1 3.05 4.82c.65 1.857.973 3.846.973 5.969 0 3.006-.56 5.556-1.68 7.65-1.12 2.092-2.712 3.552-4.775 4.377 2.24.707 4.112 2.21 5.615 4.51 1.504 2.3 2.255 5.277 2.255 8.932 0 5.189-1.636 9.3-4.908 12.337-3.272 3.036-8.003 4.554-14.194 4.554zm20.606-23.081v-11.85h19.013c1.356 0 2.403-.354 3.14-1.062.737-.707 1.106-1.74 1.106-3.095 0-1.356-.369-2.373-1.106-3.051-.737-.678-1.784-1.017-3.14-1.017h-24.142v28.741h24.938c3.066 0 4.6-1.385 4.6-4.156 0-1.415-.384-2.52-1.15-3.316-.767-.796-1.887-1.194-3.361-1.194zm92.061 23.081-11.496-14.592h-13.62v-13.442h19.81c2.122 0 3.862-.663 5.218-1.99 1.356-1.326 2.034-3.11 2.034-5.35 0-2.24-.678-4.024-2.034-5.35-1.356-1.327-3.096-1.99-5.218-1.99h-24.231v42.714h-15.388v-57.483h39.619c3.302 0 6.338.516 9.109 1.548s5.173 2.49 7.207 4.377c2.035 1.887 3.611 4.157 4.732 6.81 1.12 2.653 1.68 5.571 1.68 8.755 0 4.422-1.061 8.284-3.184 11.585-2.122 3.302-4.982 5.807-8.578 7.517l14.503 16.891zm82.334 0-4.776-8.843H520.54l6.545-12.293h13.884l-9.816-18.483-21.048 39.62h-17.068l29.36-53.239c1.592-2.83 3.892-4.245 6.899-4.245h3.537c3.007 0 5.306 1.415 6.898 4.245l29.36 53.238zm76.054 0c-2.063 0-3.685-.383-4.864-1.15-1.179-.766-2.505-2.004-3.98-3.714l-29.625-32.013v36.877h-15.034v-50.938c0-4.363 2.387-6.545 7.163-6.545h3.714c1.18 0 2.211.089 3.096.266.884.176 1.68.442 2.387.795.708.354 1.371.796 1.99 1.327.62.53 1.253 1.15 1.902 1.857l27.15 29.272v-33.517h14.945v51.558c0 3.95-1.916 5.925-5.748 5.925zm47.048 0c-4.422 0-8.49-.692-12.204-2.078-3.714-1.385-6.913-3.331-9.595-5.837-2.683-2.505-4.79-5.527-6.323-9.064-1.533-3.538-2.3-7.458-2.3-11.762s.767-8.21 2.3-11.718c1.533-3.508 3.64-6.53 6.323-9.064 2.682-2.536 5.88-4.496 9.595-5.881 3.714-1.386 7.782-2.079 12.204-2.079h28.123v14.769h-29.184c-2.005 0-3.862.339-5.572 1.017-1.71.678-3.183 1.636-4.421 2.874-1.239 1.238-2.211 2.712-2.919 4.422-.707 1.71-1.06 3.596-1.06 5.66 0 2.063.353 3.95 1.06 5.66.708 1.71 1.68 3.169 2.919 4.377 1.238 1.209 2.712 2.152 4.421 2.83 1.71.678 3.567 1.017 5.572 1.017h29.184v14.857zm92.15 0-4.776-8.843h-26.972l6.544-12.293h13.884l-9.816-18.483-21.048 39.62h-17.068l29.36-53.239c1.593-2.83 3.892-4.245 6.899-4.245h3.537c3.007 0 5.306 1.415 6.898 4.245l29.36 53.238z" style="fill:#fff;fill-opacity:1;fill-rule:evenodd" transform="translate(-63.011 -172.05)"/><path d="M389.272 339.477h1.923c.838 0 1.675.043 2.508.13a27.98 27.98 0 0 1 4.44.628c1.545.346 3.015.919 4.381 1.718 2.464 1.442 4.314 3.469 5.413 6.107a20.742 20.742 0 0 1 1.595 7.665 18.679 18.679 0 0 1-1.269 7.129c-.944 2.419-2.499 4.407-4.605 5.93a14.472 14.472 0 0 1-5.816 2.502 40.857 40.857 0 0 1-5.888.684l-.073.002h-1.497c-.502 0-1.004.003-1.506 0l-9.723-.053v15.647H366.37v-48.151h22.839zm60.307 18.09h13.913v-18.153h12.784v48.152h-12.784v-18.713H449.58v18.713h-12.784v-48.152h12.784zm84.554 19.332H516.99L513 387.566h-13.62l20.32-48.152h12.208l20.521 48.152H538.25zm69.011-37.356a24.54 24.54 0 0 1 5.356.869 11.405 11.405 0 0 1 5.052 2.966 12.13 12.13 0 0 1 2.928 4.412 17.725 17.725 0 0 1 1.137 4.96l.006.068v.068c0 .252.009.503.027.754.022.323.03.647.035.972.04 3.21-.659 6.306-2.425 9.017-1.427 2.191-3.43 3.658-5.762 4.57l11.593 19.367h-14.557l-9.856-17.59h-8.435v17.59H575.46v-48.152h24.964l.076.007c.395.036.791.056 1.188.056.487 0 .973.022 1.458.065zm70.183 30.586 10.201-30.715h16.681v48.152h-12.633l.544-25.326-8.336 25.326h-12.407l-8.663-25.762.684 25.762h-13.016v-48.152h16.744zm84.74 6.77h-17.142l-3.992 10.667h-13.62l20.32-48.152h12.207l20.522 48.152h-14.179zm-371.361-26.136h-7.551v9.86h9.795c1.77 0 3.556-.296 5.13-1.141 1.354-.728 1.608-2.318 1.609-3.775.041-1.42-.117-3.233-1.615-3.856-1.797-.747-3.75-1.025-5.686-1.025h-1.682zm138.754 3.908-4.139 10.88h8.435zm70.958-3.908h-8.175v7.926h10.252l.126.063c1.651-.002 3.301-.231 4.856-.802 1.215-.446 1.308-2.092 1.3-3.18-.01-1.119-.128-2.809-1.41-3.21-1.697-.532-3.493-.734-5.267-.734h-1.682zm152.976 3.908-4.139 10.88h8.435z" style="fill:#58b802;fill-rule:evenodd" transform="translate(-63.011 -172.05)"/></svg>