<svg version="1.1" id="svg3141" width="39" height="39" xmlns="http://www.w3.org/2000/svg"><path d="m36.71 27.378-7.896-3.483a1.692 1.741 0 0 0-1.974.5l-3.497 4.398a26.13 26.896 0 0 1-12.491-12.857l4.272-3.6a1.688 1.737 0 0 0 .487-2.031l-3.384-8.127a1.703 1.753 0 0 0-1.939-1.009L2.956 2.911a1.692 1.741 0 0 0-1.31 1.697c0 18.612 14.655 33.668 32.71 33.668a1.692 1.741 0 0 0 1.65-1.35l1.691-7.546a1.712 1.763 0 0 0-.987-2.002z" id="path3139" style="stroke-width:.0715216px;fill:#5bc500;fill-opacity:1"/></svg>